<svg xmlns="http://www.w3.org/2000/svg" width="32" height="32" fill="none" viewBox="0 0 32 32"><rect width="32" height="32" fill="#292525" rx="1"/><rect width="24" height="10" x="4" y="4" fill="#D9D9D9" rx="1"/><path stroke="#7C7676" stroke-linecap="round" stroke-width="1.5" d="M23.3846 6L25.9273 6"/><path stroke="#7C7676" stroke-linecap="round" stroke-width="1.5" d="M6 6H10.6154"/><rect width="7" height="7" x="13" y="6" fill="#7C7676" rx="1"/><rect width="5.75" height="5.75" x="22" y="16" fill="#9E9E9E" rx="1"/><circle cx="24.875" cy="18.875" r="1.438" fill="#2FDC4A"/><circle cx="16" cy="19" r="3" fill="#171717"/><ellipse cx="16" cy="19" fill="#767676" rx="1.364" ry="1.364"/><circle cx="7" cy="19" r="3" fill="#171717"/><ellipse cx="7" cy="19" fill="#767676" rx="1.364" ry="1.364"/><circle cx="7" cy="26" r="3" fill="#171717"/><ellipse cx="7" cy="26" fill="#767676" rx="1.364" ry="1.364"/><circle cx="16" cy="26" r="3" fill="#171717"/><ellipse cx="16" cy="26" fill="#767676" rx="1.364" ry="1.364"/><circle cx="25" cy="26" r="3" fill="#171717"/><ellipse cx="25" cy="26" fill="#fff" rx="1.364" ry="1.364"/></svg>